<svg width="28" height="24" viewBox="0 0 28 24" fill="none" xmlns="http://www.w3.org/2000/svg">
<path d="M23.4695 3.59009H3.77953C2.3933 3.59009 1.26953 4.71385 1.26953 6.10009V20.5601C1.26953 21.9463 2.3933 23.0701 3.77953 23.0701H23.4695C24.8558 23.0701 25.9795 21.9463 25.9795 20.5601V6.10009C25.9795 4.71385 24.8558 3.59009 23.4695 3.59009Z" fill="#663399"/>
<path d="M8.27969 1.94001C8.27969 1.28831 7.75362 0.76001 7.10469 0.76001C6.45575 0.76001 5.92969 1.28831 5.92969 1.94001V3.59001C5.92969 4.24171 6.45575 4.77001 7.10469 4.77001C7.75362 4.77001 8.27969 4.24171 8.27969 3.59001V1.94001Z" fill="#663399"/>
<path d="M21.0795 1.94001C21.0795 1.28831 20.5534 0.76001 19.9045 0.76001C19.2556 0.76001 18.7295 1.28831 18.7295 1.94001V3.59001C18.7295 4.24171 19.2556 4.77001 19.9045 4.77001C20.5534 4.77001 21.0795 4.24171 21.0795 3.59001V1.94001Z" fill="#663399"/>
<path d="M1 8H26.66" stroke="white" stroke-width="1.78" stroke-miterlimit="10" stroke-linecap="round"/>
</svg>
