<svg width="32" height="32" viewBox="0 0 32 32" fill="none" xmlns="http://www.w3.org/2000/svg">
<mask id="path-1-inside-1" fill="white">
<path d="M25.2518 26.4001H24.7601C24.086 26.4004 23.4339 26.1603 22.9209 25.7229C22.4079 25.2855 22.0678 24.6795 21.9616 24.0138H10.1548C10.0486 24.6795 9.70841 25.2855 9.19545 25.7229C8.68249 26.1603 8.03034 26.4004 7.35621 26.4001H6.86458C6.11429 26.3991 5.39497 26.1009 4.86408 25.5707C4.33319 25.0405 4.034 24.3216 4.032 23.5713V18.4053C4.02288 17.6132 4.12601 16.8238 4.33832 16.0606C4.38749 15.9245 4.45556 15.7618 4.5312 15.5917C4.13284 15.3982 3.79684 15.0968 3.56148 14.7217C3.32612 14.3466 3.20086 13.9129 3.2 13.4701V13.0919C3.201 12.4663 3.44994 11.8667 3.89229 11.4243C4.33463 10.982 4.93429 10.733 5.55985 10.732H6.18385C6.31052 10.7319 6.43699 10.742 6.56203 10.7623C7.22007 8.98104 8.98239 5.6001 12.6129 5.6001H19.5034C23.134 5.6001 24.8963 8.98104 25.5543 10.7547C25.6794 10.7345 25.8058 10.7243 25.9325 10.7245H26.5565C27.1821 10.7255 27.7817 10.9744 28.2241 11.4168C28.6664 11.8591 28.9154 12.4587 28.9164 13.0843V13.4625C28.9176 13.9058 28.7941 14.3405 28.5601 14.717C28.326 15.0935 27.9908 15.3966 27.5927 15.5917C27.6684 15.7618 27.7364 15.9245 27.7856 16.0568C27.9973 16.8189 28.1004 17.6069 28.0919 18.3978V23.5713C28.0899 24.3229 27.7897 25.043 27.2572 25.5734C26.7246 26.1038 26.0034 26.4011 25.2518 26.4001ZM9.24712 22.1229H22.8617C23.1124 22.1229 23.3529 22.2225 23.5302 22.3998C23.7075 22.5771 23.8071 22.8176 23.8071 23.0683V23.5713C23.8076 23.6956 23.8327 23.8186 23.881 23.9331C23.9292 24.0477 23.9997 24.1516 24.0883 24.2387C24.1769 24.3259 24.2818 24.3947 24.3972 24.4411C24.5125 24.4876 24.6358 24.5107 24.7601 24.5092H25.2518C25.3753 24.5097 25.4976 24.4858 25.6119 24.4389C25.7261 24.392 25.8299 24.323 25.9174 24.2358C26.0049 24.1487 26.0743 24.0451 26.1217 23.9311C26.1691 23.817 26.1934 23.6948 26.1934 23.5713V18.4053C26.1995 17.8362 26.136 17.2685 26.0044 16.7149C25.872 16.3594 25.49 15.5803 25.3539 15.308C25.2806 15.1641 25.2456 15.0038 25.2521 14.8425C25.2586 14.6812 25.3066 14.5242 25.3912 14.3868C25.4759 14.2493 25.5945 14.1359 25.7357 14.0575C25.8768 13.9791 26.0358 13.9383 26.1972 13.939H26.5754C26.6992 13.9371 26.8173 13.887 26.9049 13.7995C26.9924 13.712 27.0424 13.5938 27.0444 13.4701V13.0919C27.0424 12.9681 26.9924 12.85 26.9049 12.7624C26.8173 12.6749 26.6992 12.6249 26.5754 12.6229H25.9325C25.8175 12.6225 25.7067 12.6658 25.6224 12.744C25.5 12.8521 25.352 12.9269 25.1924 12.9613C25.0328 12.9958 24.867 12.9886 24.711 12.9406C24.5547 12.8916 24.4139 12.8027 24.3025 12.6827C24.191 12.5626 24.1129 12.4156 24.0756 12.2561C24.0756 12.2107 22.839 7.49101 19.5034 7.49101H12.6129C9.27738 7.49101 8.05207 12.2107 8.04072 12.2599C8.0013 12.4178 7.92177 12.5629 7.80983 12.6811C7.69789 12.7993 7.55733 12.8865 7.40176 12.9345C7.2462 12.9824 7.08089 12.9893 6.92185 12.9546C6.76281 12.9199 6.61542 12.8448 6.49396 12.7364C6.40965 12.6582 6.29882 12.615 6.18385 12.6154H5.55985C5.43609 12.6173 5.31794 12.6674 5.23041 12.7549C5.14289 12.8424 5.09286 12.9606 5.09091 13.0843V13.4625C5.09286 13.5863 5.14289 13.7044 5.23041 13.7919C5.31794 13.8795 5.43609 13.9295 5.55985 13.9314H5.91912C6.08059 13.9307 6.23952 13.9715 6.38067 14.0499C6.52181 14.1283 6.64042 14.2417 6.72511 14.3792C6.80979 14.5167 6.85771 14.6736 6.86425 14.8349C6.87079 14.9963 6.83575 15.1566 6.76247 15.3005C6.62632 15.5728 6.24436 16.3518 6.112 16.7073C5.97998 17.2635 5.91648 17.8337 5.92291 18.4053V23.5713C5.9229 23.6948 5.94729 23.817 5.99466 23.9311C6.04203 24.0451 6.11145 24.1487 6.19894 24.2358C6.28643 24.323 6.39027 24.392 6.5045 24.4389C6.61873 24.4858 6.74109 24.5097 6.86458 24.5092H7.35621C7.48019 24.5102 7.60315 24.4867 7.71803 24.44C7.8329 24.3934 7.93744 24.3245 8.02563 24.2374C8.11383 24.1503 8.18395 24.0466 8.23197 23.9322C8.27998 23.8179 8.30496 23.6953 8.30545 23.5713V23.0683C8.30545 22.8182 8.40454 22.5783 8.58103 22.4011C8.75752 22.2239 8.99703 22.1239 9.24712 22.1229ZM11.2061 19.5323H9.74632C9.202 19.5313 8.68026 19.3146 8.29536 18.9297C7.91047 18.5449 7.6938 18.0231 7.6928 17.4788C7.6825 17.2201 7.72743 16.9622 7.82459 16.7222C7.92176 16.4823 8.06892 16.2657 8.25629 16.0871C8.45313 15.9233 8.68344 15.8045 8.93105 15.7392C9.17866 15.6739 9.43756 15.6635 9.6896 15.7089C10.8241 15.898 13.1235 16.2875 13.1235 17.7851C13.0933 18.2683 12.8763 18.7208 12.5185 19.0468C12.1606 19.3729 11.69 19.547 11.2061 19.5323ZM9.41352 16.8094C9.26817 16.8022 9.12493 16.8464 9.00887 16.9342C8.94356 17.0081 8.89382 17.0944 8.86263 17.188C8.83144 17.2816 8.81944 17.3805 8.82734 17.4788C8.82734 17.7225 8.92416 17.9563 9.0965 18.1286C9.26885 18.3009 9.50259 18.3978 9.74632 18.3978H11.2061C11.3921 18.4131 11.5769 18.3565 11.7225 18.2397C11.8681 18.123 11.9635 17.9549 11.9889 17.77C11.9889 17.6452 11.8112 17.2027 9.52698 16.817L9.41352 16.8094ZM22.37 19.5323H20.9102C20.4239 19.5468 19.9511 19.3707 19.5929 19.0414C19.2346 18.7121 19.0193 18.2558 18.9929 17.77C18.9929 16.2573 21.2922 15.8791 22.3965 15.6976C22.6527 15.6495 22.9163 15.6584 23.1686 15.7238C23.4209 15.7891 23.6557 15.9093 23.8563 16.0757C24.0436 16.2544 24.1908 16.4709 24.288 16.7109C24.3851 16.9508 24.4301 17.2088 24.4198 17.4674C24.4208 17.7376 24.3685 18.0053 24.2661 18.2553C24.1636 18.5053 24.0129 18.7327 23.8226 18.9244C23.6322 19.1161 23.406 19.2685 23.1568 19.3728C22.9075 19.4771 22.6402 19.5313 22.37 19.5323ZM22.7066 16.8132H22.5629C20.2938 17.1914 20.1274 17.6376 20.1274 17.7624C20.1529 17.9473 20.2482 18.1154 20.3938 18.2322C20.5394 18.3489 20.7242 18.4055 20.9102 18.3902H22.37C22.6138 18.3902 22.8475 18.2934 23.0198 18.121C23.1922 17.9487 23.289 17.715 23.289 17.4712C23.2998 17.279 23.2346 17.0902 23.1075 16.9455C22.9939 16.855 22.8517 16.8081 22.7066 16.8132Z"/>
</mask>
<path d="M25.2518 26.4001H24.7601C24.086 26.4004 23.4339 26.1603 22.9209 25.7229C22.4079 25.2855 22.0678 24.6795 21.9616 24.0138H10.1548C10.0486 24.6795 9.70841 25.2855 9.19545 25.7229C8.68249 26.1603 8.03034 26.4004 7.35621 26.4001H6.86458C6.11429 26.3991 5.39497 26.1009 4.86408 25.5707C4.33319 25.0405 4.034 24.3216 4.032 23.5713V18.4053C4.02288 17.6132 4.12601 16.8238 4.33832 16.0606C4.38749 15.9245 4.45556 15.7618 4.5312 15.5917C4.13284 15.3982 3.79684 15.0968 3.56148 14.7217C3.32612 14.3466 3.20086 13.9129 3.2 13.4701V13.0919C3.201 12.4663 3.44994 11.8667 3.89229 11.4243C4.33463 10.982 4.93429 10.733 5.55985 10.732H6.18385C6.31052 10.7319 6.43699 10.742 6.56203 10.7623C7.22007 8.98104 8.98239 5.6001 12.6129 5.6001H19.5034C23.134 5.6001 24.8963 8.98104 25.5543 10.7547C25.6794 10.7345 25.8058 10.7243 25.9325 10.7245H26.5565C27.1821 10.7255 27.7817 10.9744 28.2241 11.4168C28.6664 11.8591 28.9154 12.4587 28.9164 13.0843V13.4625C28.9176 13.9058 28.7941 14.3405 28.5601 14.717C28.326 15.0935 27.9908 15.3966 27.5927 15.5917C27.6684 15.7618 27.7364 15.9245 27.7856 16.0568C27.9973 16.8189 28.1004 17.6069 28.0919 18.3978V23.5713C28.0899 24.3229 27.7897 25.043 27.2572 25.5734C26.7246 26.1038 26.0034 26.4011 25.2518 26.4001ZM9.24712 22.1229H22.8617C23.1124 22.1229 23.3529 22.2225 23.5302 22.3998C23.7075 22.5771 23.8071 22.8176 23.8071 23.0683V23.5713C23.8076 23.6956 23.8327 23.8186 23.881 23.9331C23.9292 24.0477 23.9997 24.1516 24.0883 24.2387C24.1769 24.3259 24.2818 24.3947 24.3972 24.4411C24.5125 24.4876 24.6358 24.5107 24.7601 24.5092H25.2518C25.3753 24.5097 25.4976 24.4858 25.6119 24.4389C25.7261 24.392 25.8299 24.323 25.9174 24.2358C26.0049 24.1487 26.0743 24.0451 26.1217 23.9311C26.1691 23.817 26.1934 23.6948 26.1934 23.5713V18.4053C26.1995 17.8362 26.136 17.2685 26.0044 16.7149C25.872 16.3594 25.49 15.5803 25.3539 15.308C25.2806 15.1641 25.2456 15.0038 25.2521 14.8425C25.2586 14.6812 25.3066 14.5242 25.3912 14.3868C25.4759 14.2493 25.5945 14.1359 25.7357 14.0575C25.8768 13.9791 26.0358 13.9383 26.1972 13.939H26.5754C26.6992 13.9371 26.8173 13.887 26.9049 13.7995C26.9924 13.712 27.0424 13.5938 27.0444 13.4701V13.0919C27.0424 12.9681 26.9924 12.85 26.9049 12.7624C26.8173 12.6749 26.6992 12.6249 26.5754 12.6229H25.9325C25.8175 12.6225 25.7067 12.6658 25.6224 12.744C25.5 12.8521 25.352 12.9269 25.1924 12.9613C25.0328 12.9958 24.867 12.9886 24.711 12.9406C24.5547 12.8916 24.4139 12.8027 24.3025 12.6827C24.191 12.5626 24.1129 12.4156 24.0756 12.2561C24.0756 12.2107 22.839 7.49101 19.5034 7.49101H12.6129C9.27738 7.49101 8.05207 12.2107 8.04072 12.2599C8.0013 12.4178 7.92177 12.5629 7.80983 12.6811C7.69789 12.7993 7.55733 12.8865 7.40176 12.9345C7.2462 12.9824 7.08089 12.9893 6.92185 12.9546C6.76281 12.9199 6.61542 12.8448 6.49396 12.7364C6.40965 12.6582 6.29882 12.615 6.18385 12.6154H5.55985C5.43609 12.6173 5.31794 12.6674 5.23041 12.7549C5.14289 12.8424 5.09286 12.9606 5.09091 13.0843V13.4625C5.09286 13.5863 5.14289 13.7044 5.23041 13.7919C5.31794 13.8795 5.43609 13.9295 5.55985 13.9314H5.91912C6.08059 13.9307 6.23952 13.9715 6.38067 14.0499C6.52181 14.1283 6.64042 14.2417 6.72511 14.3792C6.80979 14.5167 6.85771 14.6736 6.86425 14.8349C6.87079 14.9963 6.83575 15.1566 6.76247 15.3005C6.62632 15.5728 6.24436 16.3518 6.112 16.7073C5.97998 17.2635 5.91648 17.8337 5.92291 18.4053V23.5713C5.9229 23.6948 5.94729 23.817 5.99466 23.9311C6.04203 24.0451 6.11145 24.1487 6.19894 24.2358C6.28643 24.323 6.39027 24.392 6.5045 24.4389C6.61873 24.4858 6.74109 24.5097 6.86458 24.5092H7.35621C7.48019 24.5102 7.60315 24.4867 7.71803 24.44C7.8329 24.3934 7.93744 24.3245 8.02563 24.2374C8.11383 24.1503 8.18395 24.0466 8.23197 23.9322C8.27998 23.8179 8.30496 23.6953 8.30545 23.5713V23.0683C8.30545 22.8182 8.40454 22.5783 8.58103 22.4011C8.75752 22.2239 8.99703 22.1239 9.24712 22.1229ZM11.2061 19.5323H9.74632C9.202 19.5313 8.68026 19.3146 8.29536 18.9297C7.91047 18.5449 7.6938 18.0231 7.6928 17.4788C7.6825 17.2201 7.72743 16.9622 7.82459 16.7222C7.92176 16.4823 8.06892 16.2657 8.25629 16.0871C8.45313 15.9233 8.68344 15.8045 8.93105 15.7392C9.17866 15.6739 9.43756 15.6635 9.6896 15.7089C10.8241 15.898 13.1235 16.2875 13.1235 17.7851C13.0933 18.2683 12.8763 18.7208 12.5185 19.0468C12.1606 19.3729 11.69 19.547 11.2061 19.5323ZM9.41352 16.8094C9.26817 16.8022 9.12493 16.8464 9.00887 16.9342C8.94356 17.0081 8.89382 17.0944 8.86263 17.188C8.83144 17.2816 8.81944 17.3805 8.82734 17.4788C8.82734 17.7225 8.92416 17.9563 9.0965 18.1286C9.26885 18.3009 9.50259 18.3978 9.74632 18.3978H11.2061C11.3921 18.4131 11.5769 18.3565 11.7225 18.2397C11.8681 18.123 11.9635 17.9549 11.9889 17.77C11.9889 17.6452 11.8112 17.2027 9.52698 16.817L9.41352 16.8094ZM22.37 19.5323H20.9102C20.4239 19.5468 19.9511 19.3707 19.5929 19.0414C19.2346 18.7121 19.0193 18.2558 18.9929 17.77C18.9929 16.2573 21.2922 15.8791 22.3965 15.6976C22.6527 15.6495 22.9163 15.6584 23.1686 15.7238C23.4209 15.7891 23.6557 15.9093 23.8563 16.0757C24.0436 16.2544 24.1908 16.4709 24.288 16.7109C24.3851 16.9508 24.4301 17.2088 24.4198 17.4674C24.4208 17.7376 24.3685 18.0053 24.2661 18.2553C24.1636 18.5053 24.0129 18.7327 23.8226 18.9244C23.6322 19.1161 23.406 19.2685 23.1568 19.3728C22.9075 19.4771 22.6402 19.5313 22.37 19.5323ZM22.7066 16.8132H22.5629C20.2938 17.1914 20.1274 17.6376 20.1274 17.7624C20.1529 17.9473 20.2482 18.1154 20.3938 18.2322C20.5394 18.3489 20.7242 18.4055 20.9102 18.3902H22.37C22.6138 18.3902 22.8475 18.2934 23.0198 18.121C23.1922 17.9487 23.289 17.715 23.289 17.4712C23.2998 17.279 23.2346 17.0902 23.1075 16.9455C22.9939 16.855 22.8517 16.8081 22.7066 16.8132Z" fill="#253A71" stroke="white" stroke-width="0.4" mask="url(#path-1-inside-1)"/>
</svg>
