<svg width="24" height="32" viewBox="0 0 24 32" fill="none" xmlns="http://www.w3.org/2000/svg">
<g clip-path="url(#clip0_372_2832)">
<path d="M1.25048 14.9C1.06048 13.87 1.07048 12.82 1.31048 11.8C2.11048 8.32995 4.87048 5.53995 8.46048 4.82995C13.3905 3.85995 18.2005 7.08995 19.1805 12C19.5305 13.76 19.2205 15.42 18.5505 17.05C17.5705 19.41 16.2905 21.6 14.8505 23.7C13.5905 25.53 12.2605 27.31 10.9505 29.11C10.5605 29.64 9.95048 29.65 9.55048 29.15C7.18048 26.12 4.96048 22.99 3.13048 19.59C2.37048 18.19 1.69048 16.75 1.32048 15.18C1.30048 15.09 1.28048 14.99 1.26048 14.89L1.25048 14.9ZM10.2205 16.26C12.0305 16.26 13.5205 14.78 13.5305 12.98C13.5305 11.14 12.0605 9.62995 10.2305 9.62995C8.40048 9.62995 6.91048 11.1 6.90048 12.92C6.90048 14.76 8.37048 16.25 10.2105 16.25L10.2205 16.26Z" fill="#663399"/>
<path d="M18.2796 27.3499C21.3945 27.3499 23.9196 24.8248 23.9196 21.7099C23.9196 18.5951 21.3945 16.0699 18.2796 16.0699C15.1648 16.0699 12.6396 18.5951 12.6396 21.7099C12.6396 24.8248 15.1648 27.3499 18.2796 27.3499Z" fill="#663399"/>
<path d="M13.2001 24.71C13.0001 24.71 12.8001 24.6 12.7001 24.4C12.2901 23.56 12.0801 22.65 12.0801 21.7C12.0801 18.28 14.8601 15.51 18.2701 15.51C18.5701 15.51 18.8201 15.76 18.8201 16.06C18.8201 16.36 18.5701 16.61 18.2701 16.61C15.4601 16.61 13.1801 18.89 13.1801 21.7C13.1801 22.48 13.3501 23.22 13.6901 23.91C13.8201 24.18 13.7101 24.51 13.4301 24.65C13.3501 24.69 13.2701 24.71 13.1901 24.71H13.2001Z" fill="white"/>
<path d="M16.9996 23.99C16.8596 23.99 16.7196 23.94 16.6096 23.83C16.3996 23.61 16.3996 23.26 16.6096 23.05L20.0896 19.6C20.3096 19.39 20.6596 19.39 20.8696 19.6C21.0796 19.82 21.0796 20.17 20.8696 20.38L17.3896 23.83C17.2796 23.94 17.1396 23.99 16.9996 23.99Z" fill="white"/>
<path d="M20.5396 23.92C20.4096 23.92 20.2696 23.87 20.1696 23.77L16.5596 20.46C16.3396 20.25 16.3196 19.9 16.5296 19.68C16.7396 19.46 17.0896 19.44 17.3096 19.65L20.9196 22.96C21.1396 23.17 21.1596 23.52 20.9496 23.74C20.8396 23.86 20.6896 23.92 20.5396 23.92Z" fill="white"/>
</g>
<defs>
<clipPath id="clip0_372_2832">
<rect width="23.92" height="31.48" fill="white"/>
</clipPath>
</defs>
</svg>
