<svg width="25" height="30" viewBox="0 0 25 30" fill="none" xmlns="http://www.w3.org/2000/svg">
<path d="M9.62545 8.03714C8.78887 7.18861 8.0479 6.42374 7.30693 5.67081C6.63766 5.06131 6.0162 4.40399 5.44255 3.69888C5.07206 3.30449 4.80914 2.81449 4.65377 2.30059C4.62987 1.70304 5.04816 1.18914 5.63377 1.08158C6.5301 0.830602 7.49815 0.842553 8.38253 1.14133C8.82472 1.24889 9.24301 1.47596 9.5896 1.77474C9.91228 2.06157 9.87642 2.06157 10.223 2.38425C10.6772 1.53572 10.6772 1.54767 11.6093 1.73889C12.2786 1.9062 12.9718 2.03767 13.653 2.13328C14.3103 2.19303 14.9676 2.19303 15.6249 2.10937C16.1508 2.03767 16.4974 2.06157 16.5571 2.64718C16.7005 2.55157 16.7961 2.49181 16.8917 2.43205C17.2144 2.24084 17.561 2.03767 17.8717 1.8823C18.5888 1.53572 19.4373 1.69108 19.9871 2.25279C20.4771 2.79059 20.6444 3.05351 20.5488 3.59132C20.3815 4.34424 19.9512 5.00155 19.3417 5.46765C18.2303 6.41179 17.0591 7.28422 15.9118 8.1925C15.84 8.24031 15.7803 8.28812 15.6608 8.38372C16.0193 8.55104 16.342 8.69445 16.6408 8.86177C19.9393 10.5588 22.4012 13.5347 23.4529 17.0842C24.2058 19.4266 24.2297 21.9363 23.5127 24.2787C22.7956 26.669 20.9551 28.0673 18.302 28.6887C15.5293 29.2743 12.6849 29.4416 9.85252 29.2026C8.43034 29.1309 7.00815 28.9277 5.60987 28.6051C2.51452 27.876 0.829409 25.9758 0.387217 23.239C-0.473265 18.0283 1.23575 13.5825 5.68157 9.99713C6.85278 9.07689 8.19131 8.40763 9.62545 8.02519" fill="#663399"/>
<path d="M14.9916 9.30394C12.5058 9.35175 10.02 9.10077 7.59387 8.55102C7.13973 8.41956 6.88875 7.94151 7.02021 7.49932C7.15168 7.05713 7.60582 6.80615 8.04801 6.91371C11.2987 7.59493 14.6331 7.7981 17.9316 7.49932C18.3977 7.47542 18.804 7.822 18.8399 8.2881C18.8757 8.75419 18.5172 9.16053 18.0392 9.19638C16.9516 9.26809 15.9358 9.29199 14.9916 9.29199" fill="white"/>
<path d="M8.37109 16.5106C8.37109 15.7577 8.99255 15.1123 9.76938 15.1123C10.5462 15.1123 11.1677 15.7338 11.1677 16.5106C11.1677 17.2874 10.5462 17.9089 9.76938 17.9089C8.99255 17.9089 8.37109 17.2874 8.37109 16.5106V16.5106Z" fill="white"/>
<path d="M14.4422 22.295C13.6893 22.295 13.0439 21.6735 13.0439 20.8967C13.0439 20.1199 13.6654 19.4984 14.4422 19.4984C15.2191 19.4984 15.8405 20.1199 15.8405 20.8967C15.8405 21.6735 15.2191 22.295 14.4422 22.295Z" fill="white"/>
<path d="M9.8291 21.6615L14.3944 15.7457" stroke="white" stroke-width="1.09951" stroke-miterlimit="10" stroke-linecap="round"/>
</svg>
